<?xml version="1.0" encoding="UTF-8" ?>
<!DOCTYPE svg PUBLIC "-//W3C//DTD SVG 1.1//EN" "http://www.w3.org/Graphics/SVG/1.1/DTD/svg11.dtd">
<svg width="648pt" height="648pt" viewBox="0 0 648 648" version="1.1" xmlns="http://www.w3.org/2000/svg">
<g id="#0085cbff">
<path fill="#0085cb" opacity="1.00" d=" M 311.17 8.21 C 372.93 5.93 435.27 22.43 487.67 55.24 C 522.38 76.80 552.80 105.22 576.70 138.36 C 602.07 173.41 620.06 213.79 629.05 256.11 C 639.09 303.08 638.23 352.35 626.49 398.92 C 616.86 437.24 599.84 473.67 576.68 505.67 C 554.20 536.82 525.97 563.81 493.82 584.84 C 457.16 608.92 415.35 625.12 372.03 632.02 C 327.68 639.11 281.80 636.70 238.50 624.76 C 201.64 614.65 166.71 597.65 135.97 574.96 C 101.74 549.78 72.69 517.59 51.16 480.95 C 20.83 429.63 5.83 369.48 8.26 309.93 C 9.61 272.90 17.61 236.11 31.82 201.89 C 48.88 160.62 74.94 123.11 107.58 92.64 C 138.80 63.41 176.03 40.60 216.32 26.25 C 246.75 15.36 278.88 9.27 311.17 8.21 M 176.48 135.24 C 202.33 161.49 228.61 187.35 254.62 213.46 C 254.88 213.86 255.39 214.66 255.65 215.06 C 219.95 250.93 183.99 286.54 148.27 322.38 L 148.00 322.98 C 183.83 358.80 219.68 394.61 255.55 430.39 C 256.72 431.13 257.19 432.40 256.82 433.74 C 230.92 459.54 205.02 485.35 179.20 511.22 L 179.06 511.99 C 200.23 533.16 221.45 554.30 242.61 575.49 C 242.90 575.57 243.49 575.73 243.78 575.81 C 269.96 549.70 296.19 523.64 322.25 497.41 L 322.91 497.63 C 348.78 523.58 374.78 549.39 400.67 575.32 C 400.98 575.46 401.62 575.74 401.94 575.89 C 423.30 554.62 444.60 533.29 465.93 512.00 C 465.97 510.68 464.54 510.12 463.84 509.23 C 438.63 484.07 413.44 458.87 388.19 433.76 C 387.80 432.42 388.25 431.16 389.42 430.42 C 425.32 394.60 461.21 358.76 497.07 322.90 C 492.19 317.49 486.78 312.55 481.70 307.33 C 450.94 276.56 420.06 245.91 389.37 215.08 C 390.35 212.97 392.35 211.65 393.88 209.97 C 418.72 185.02 443.84 160.33 468.52 135.24 C 446.29 113.22 424.27 90.98 402.02 68.98 C 375.79 95.14 349.58 121.33 323.37 147.52 C 322.36 148.74 321.25 147.13 320.55 146.45 C 294.70 120.62 268.85 94.78 242.98 68.98 C 220.73 90.97 198.71 113.22 176.48 135.24 Z" />
<path fill="#0085cb" opacity="1.00" d=" M 320.84 282.82 C 321.49 281.80 323.40 281.74 324.10 282.76 C 337.96 296.70 351.91 310.57 365.84 324.45 L 365.73 325.05 C 351.89 338.78 338.14 352.59 324.32 366.34 C 323.39 367.61 321.57 367.58 320.66 366.32 C 307.46 353.17 294.29 340.00 281.11 326.84 C 280.52 326.01 279.19 325.57 279.17 324.43 C 293.08 310.59 307.00 296.74 320.84 282.82 Z" />
</g>
<g id="#ffffffff">
<path fill="#ffffff" opacity="1.00" d=" M 176.48 135.24 C 198.71 113.22 220.73 90.97 242.98 68.98 C 268.85 94.78 294.70 120.62 320.55 146.45 C 321.25 147.13 322.36 148.74 323.37 147.52 C 349.58 121.33 375.79 95.14 402.02 68.98 C 424.27 90.98 446.29 113.22 468.52 135.24 C 443.84 160.33 418.72 185.02 393.88 209.97 C 392.35 211.65 390.35 212.97 389.37 215.08 C 420.06 245.91 450.94 276.56 481.70 307.33 C 486.78 312.55 492.19 317.49 497.07 322.90 C 461.21 358.76 425.32 394.60 389.42 430.42 C 388.25 431.16 387.80 432.42 388.19 433.76 C 413.44 458.87 438.63 484.07 463.84 509.23 C 464.54 510.12 465.97 510.68 465.93 512.00 C 444.60 533.29 423.30 554.62 401.94 575.89 C 401.62 575.74 400.98 575.46 400.67 575.32 C 374.78 549.39 348.78 523.58 322.91 497.63 L 322.25 497.41 C 296.19 523.64 269.96 549.70 243.78 575.81 C 243.49 575.73 242.90 575.57 242.61 575.49 C 221.45 554.30 200.23 533.16 179.06 511.99 L 179.20 511.22 C 205.02 485.35 230.92 459.54 256.82 433.74 C 257.19 432.40 256.72 431.13 255.55 430.39 C 219.68 394.61 183.83 358.80 148.00 322.98 L 148.27 322.38 C 183.99 286.54 219.95 250.93 255.65 215.06 C 255.39 214.66 254.88 213.86 254.62 213.46 C 228.61 187.35 202.33 161.49 176.48 135.24 M 320.84 282.82 C 307.00 296.74 293.08 310.59 279.17 324.43 C 279.19 325.57 280.52 326.01 281.11 326.84 C 294.29 340.00 307.46 353.17 320.66 366.32 C 321.57 367.58 323.39 367.61 324.32 366.34 C 338.14 352.59 351.89 338.78 365.73 325.05 L 365.84 324.45 C 351.91 310.57 337.96 296.70 324.10 282.76 C 323.40 281.74 321.49 281.80 320.84 282.82 Z" />
</g>
</svg>
